<svg xmlns="http://www.w3.org/2000/svg" xmlns:xlink="http://www.w3.org/1999/xlink" zoomAndPan="magnify" viewBox="390 488 716 234" preserveAspectRatio="xMidYMid meet" version="1.0"><defs><g/><clipPath id="68149b9206"><path d="M 390.566406 514 L 567.566406 514 L 567.566406 529 L 390.566406 529 Z M 390.566406 514 " clip-rule="nonzero"/></clipPath><clipPath id="30485cfd75"><path d="M 390.566406 706 L 567.566406 706 L 567.566406 719.738281 L 390.566406 719.738281 Z M 390.566406 706 " clip-rule="nonzero"/></clipPath><clipPath id="4501014d58"><rect x="0" width="523" y="0" height="163"/></clipPath><clipPath id="cea898d2dd"><rect x="0" width="488" y="0" height="164"/></clipPath></defs><g clip-path="url(#68149b9206)"><path fill="#333333" d="M 390.566406 514.535156 L 567.558594 514.535156 L 567.558594 528.027344 L 390.566406 528.027344 Z M 390.566406 514.535156 " fill-opacity="1" fill-rule="nonzero"/></g><path fill="#333333" d="M 417.472656 497.09375 L 540.652344 497.09375 L 540.652344 506.507812 L 417.472656 506.507812 Z M 417.472656 497.09375 " fill-opacity="1" fill-rule="nonzero"/><g clip-path="url(#30485cfd75)"><path fill="#333333" d="M 390.566406 706.117188 L 567.558594 706.117188 L 567.558594 719.609375 L 390.566406 719.609375 Z M 390.566406 706.117188 " fill-opacity="1" fill-rule="nonzero"/></g><path fill="#333333" d="M 417.46875 688.683594 L 417.46875 698.089844 L 540.65625 698.089844 L 540.65625 688.683594 C 530.332031 688.683594 521.960938 680.316406 521.960938 669.992188 L 521.960938 564.167969 C 521.960938 553.84375 530.332031 545.472656 540.65625 545.472656 L 540.65625 536.054688 L 417.46875 536.054688 L 417.46875 545.472656 C 427.792969 545.472656 436.164062 553.839844 436.164062 564.167969 L 436.164062 669.992188 C 436.164062 680.3125 427.792969 688.683594 417.46875 688.683594 Z M 491.113281 554.003906 C 491.113281 549.292969 494.933594 545.472656 499.648438 545.472656 C 504.359375 545.472656 508.179688 549.292969 508.179688 554.003906 L 508.179688 680.152344 C 508.179688 684.863281 504.359375 688.683594 499.648438 688.683594 C 494.933594 688.683594 491.113281 684.863281 491.113281 680.152344 Z M 449.941406 554.09375 C 449.941406 549.332031 453.800781 545.472656 458.5625 545.472656 C 463.324219 545.472656 467.183594 549.332031 467.183594 554.09375 L 467.183594 680.0625 C 467.183594 684.824219 463.324219 688.683594 458.5625 688.683594 C 453.800781 688.683594 449.941406 684.824219 449.941406 680.0625 Z M 449.941406 554.09375 " fill-opacity="1" fill-rule="nonzero"/><g transform="matrix(1, 0, 0, 1, 590, 592)"><g clip-path="url(#4501014d58)"><g fill="#333333" fill-opacity="1"><g transform="translate(1.191686, 127.192132)"><g><path d="M 29.265625 0 L 12.28125 0 C 10.539062 0 9.671875 -0.867188 9.671875 -2.609375 L 9.671875 -95.140625 C 9.671875 -96.878906 10.539062 -97.75 12.28125 -97.75 L 69.296875 -97.75 C 71.035156 -97.75 71.90625 -96.878906 71.90625 -95.140625 L 71.90625 -81.140625 C 71.90625 -79.398438 71.035156 -78.53125 69.296875 -78.53125 L 31.875 -78.53125 L 31.875 -51.15625 L 63.828125 -51.15625 C 65.566406 -51.15625 66.4375 -50.289062 66.4375 -48.5625 L 66.4375 -35.578125 C 66.4375 -33.835938 65.566406 -32.96875 63.828125 -32.96875 L 31.875 -32.96875 L 31.875 -2.609375 C 31.875 -0.867188 31.003906 0 29.265625 0 Z M 29.265625 0 "/></g></g></g><g fill="#333333" fill-opacity="1"><g transform="translate(77.486157, 127.192132)"><g><path d="M 50.015625 2.484375 C 44.546875 2.484375 39.328125 1.8125 34.359375 0.46875 C 29.398438 -0.863281 25 -2.925781 21.15625 -5.71875 C 17.320312 -8.519531 14.300781 -12.125 12.09375 -16.53125 C 9.882812 -20.945312 8.78125 -26.253906 8.78125 -32.453125 L 8.78125 -95.140625 C 8.78125 -96.878906 9.648438 -97.75 11.390625 -97.75 L 28.953125 -97.75 C 30.691406 -97.75 31.5625 -96.878906 31.5625 -95.140625 L 31.5625 -37.734375 C 31.5625 -32.941406 32.28125 -29.082031 33.71875 -26.15625 C 35.164062 -23.226562 37.265625 -21.09375 40.015625 -19.75 C 42.773438 -18.414062 46.109375 -17.75 50.015625 -17.75 C 53.960938 -17.75 57.3125 -18.414062 60.0625 -19.75 C 62.820312 -21.09375 64.910156 -23.226562 66.328125 -26.15625 C 67.753906 -29.082031 68.46875 -32.941406 68.46875 -37.734375 L 68.46875 -95.140625 C 68.46875 -96.878906 69.335938 -97.75 71.078125 -97.75 L 88.640625 -97.75 C 90.378906 -97.75 91.25 -96.878906 91.25 -95.140625 L 91.25 -32.453125 C 91.25 -26.253906 90.164062 -20.945312 88 -16.53125 C 85.84375 -12.125 82.863281 -8.519531 79.0625 -5.71875 C 75.269531 -2.925781 70.878906 -0.863281 65.890625 0.46875 C 60.910156 1.8125 55.617188 2.484375 50.015625 2.484375 Z M 50.015625 2.484375 "/></g></g></g><g fill="#333333" fill-opacity="1"><g transform="translate(177.515272, 127.192132)"><g><path d="M 45.0625 0 L 27.875 0 C 26.132812 0 25.265625 -0.867188 25.265625 -2.609375 L 25.265625 -78.53125 L 4.90625 -78.53125 C 3.164062 -78.53125 2.296875 -79.398438 2.296875 -81.140625 L 2.296875 -95.140625 C 2.296875 -96.878906 3.164062 -97.75 4.90625 -97.75 L 68.03125 -97.75 C 69.769531 -97.75 70.640625 -96.878906 70.640625 -95.140625 L 70.640625 -81.140625 C 70.640625 -79.398438 69.769531 -78.53125 68.03125 -78.53125 L 47.65625 -78.53125 L 47.65625 -2.609375 C 47.65625 -0.867188 46.789062 0 45.0625 0 Z M 45.0625 0 "/></g></g></g><g fill="#333333" fill-opacity="1"><g transform="translate(250.564524, 127.192132)"><g><path d="M 50.015625 2.484375 C 44.546875 2.484375 39.328125 1.8125 34.359375 0.46875 C 29.398438 -0.863281 25 -2.925781 21.15625 -5.71875 C 17.320312 -8.519531 14.300781 -12.125 12.09375 -16.53125 C 9.882812 -20.945312 8.78125 -26.253906 8.78125 -32.453125 L 8.78125 -95.140625 C 8.78125 -96.878906 9.648438 -97.75 11.390625 -97.75 L 28.953125 -97.75 C 30.691406 -97.75 31.5625 -96.878906 31.5625 -95.140625 L 31.5625 -37.734375 C 31.5625 -32.941406 32.28125 -29.082031 33.71875 -26.15625 C 35.164062 -23.226562 37.265625 -21.09375 40.015625 -19.75 C 42.773438 -18.414062 46.109375 -17.75 50.015625 -17.75 C 53.960938 -17.75 57.3125 -18.414062 60.0625 -19.75 C 62.820312 -21.09375 64.910156 -23.226562 66.328125 -26.15625 C 67.753906 -29.082031 68.46875 -32.941406 68.46875 -37.734375 L 68.46875 -95.140625 C 68.46875 -96.878906 69.335938 -97.75 71.078125 -97.75 L 88.640625 -97.75 C 90.378906 -97.75 91.25 -96.878906 91.25 -95.140625 L 91.25 -32.453125 C 91.25 -26.253906 90.164062 -20.945312 88 -16.53125 C 85.84375 -12.125 82.863281 -8.519531 79.0625 -5.71875 C 75.269531 -2.925781 70.878906 -0.863281 65.890625 0.46875 C 60.910156 1.8125 55.617188 2.484375 50.015625 2.484375 Z M 50.015625 2.484375 "/></g></g></g><g fill="#333333" fill-opacity="1"><g transform="translate(350.593639, 127.192132)"><g><path d="M 69.046875 -36.015625 L 86.671875 -3.125 C 87.140625 -2.1875 87.191406 -1.429688 86.828125 -0.859375 C 86.472656 -0.285156 85.804688 0 84.828125 0 L 65.359375 0 C 63.992188 0 62.992188 -0.65625 62.359375 -1.96875 L 46.90625 -32.578125 L 32.015625 -32.578125 L 32.015625 -2.609375 C 32.015625 -0.867188 31.144531 0 29.40625 0 L 12.28125 0 C 10.539062 0 9.671875 -0.867188 9.671875 -2.609375 L 9.671875 -95.140625 C 9.671875 -96.878906 10.539062 -97.75 12.28125 -97.75 L 48.75 -97.75 C 55.570312 -97.75 61.285156 -96.929688 65.890625 -95.296875 C 70.492188 -93.660156 74.175781 -91.398438 76.9375 -88.515625 C 79.695312 -85.628906 81.679688 -82.242188 82.890625 -78.359375 C 84.097656 -74.484375 84.703125 -70.273438 84.703125 -65.734375 C 84.703125 -58.566406 83.351562 -52.445312 80.65625 -47.375 C 77.96875 -42.300781 74.097656 -38.515625 69.046875 -36.015625 Z M 45.25 -78.53125 L 32.015625 -78.53125 L 32.015625 -51.796875 L 45.25 -51.796875 C 46.21875 -51.796875 47.421875 -51.835938 48.859375 -51.921875 C 50.304688 -52.015625 51.828125 -52.269531 53.421875 -52.6875 C 55.015625 -53.113281 56.5 -53.8125 57.875 -54.78125 C 59.257812 -55.757812 60.382812 -57.117188 61.25 -58.859375 C 62.125 -60.597656 62.5625 -62.828125 62.5625 -65.546875 C 62.5625 -68.128906 62.15625 -70.238281 61.34375 -71.875 C 60.539062 -73.507812 59.488281 -74.78125 58.1875 -75.6875 C 56.894531 -76.601562 55.472656 -77.257812 53.921875 -77.65625 C 52.378906 -78.0625 50.851562 -78.304688 49.34375 -78.390625 C 47.84375 -78.484375 46.476562 -78.53125 45.25 -78.53125 Z M 45.25 -78.53125 "/></g></g></g><g fill="#333333" fill-opacity="1"><g transform="translate(443.432368, 127.192132)"><g><path d="M 69.296875 0 L 12.28125 0 C 10.539062 0 9.671875 -0.867188 9.671875 -2.609375 L 9.671875 -95.140625 C 9.671875 -96.878906 10.539062 -97.75 12.28125 -97.75 L 69.296875 -97.75 C 71.035156 -97.75 71.90625 -96.878906 71.90625 -95.140625 L 71.90625 -81.140625 C 71.90625 -79.398438 71.035156 -78.53125 69.296875 -78.53125 L 31.875 -78.53125 L 31.875 -51.15625 L 64.203125 -51.15625 C 65.941406 -51.15625 66.8125 -50.289062 66.8125 -48.5625 L 66.8125 -35.578125 C 66.8125 -33.835938 65.941406 -32.96875 64.203125 -32.96875 L 31.875 -32.96875 L 31.875 -19.21875 L 69.296875 -19.21875 C 71.035156 -19.21875 71.90625 -18.347656 71.90625 -16.609375 L 71.90625 -2.609375 C 71.90625 -0.867188 71.035156 0 69.296875 0 Z M 69.296875 0 "/></g></g></g></g></g><g transform="matrix(1, 0, 0, 1, 590, 463)"><g clip-path="url(#cea898d2dd)"><g fill="#333333" fill-opacity="1"><g transform="translate(1.23305, 127.859937)"><g><path d="M 39.078125 2.484375 C 34.328125 2.484375 29.414062 2.054688 24.34375 1.203125 C 19.269531 0.359375 13.742188 -1.054688 7.765625 -3.046875 C 6.066406 -3.691406 5.535156 -4.816406 6.171875 -6.421875 L 10.953125 -20.421875 C 11.492188 -21.992188 12.613281 -22.484375 14.3125 -21.890625 C 18.726562 -20.148438 23.078125 -18.820312 27.359375 -17.90625 C 31.648438 -17 35.515625 -16.546875 38.953125 -16.546875 C 42.972656 -16.546875 46.210938 -17.253906 48.671875 -18.671875 C 51.140625 -20.097656 52.375 -22.296875 52.375 -25.265625 C 52.375 -27.128906 51.703125 -28.8125 50.359375 -30.3125 C 49.023438 -31.820312 47.234375 -33.242188 44.984375 -34.578125 C 42.742188 -35.921875 40.222656 -37.269531 37.421875 -38.625 C 34.617188 -39.976562 31.753906 -41.421875 28.828125 -42.953125 C 25.941406 -44.484375 23.171875 -46.148438 20.515625 -47.953125 C 17.867188 -49.753906 15.515625 -51.789062 13.453125 -54.0625 C 11.398438 -56.332031 9.78125 -58.941406 8.59375 -61.890625 C 7.40625 -64.835938 6.8125 -68.238281 6.8125 -72.09375 C 6.8125 -77.144531 7.742188 -81.453125 9.609375 -85.015625 C 11.472656 -88.578125 13.992188 -91.484375 17.171875 -93.734375 C 20.359375 -95.984375 23.976562 -97.628906 28.03125 -98.671875 C 32.082031 -99.710938 36.269531 -100.234375 40.59375 -100.234375 C 43.144531 -100.234375 45.914062 -100.039062 48.90625 -99.65625 C 51.894531 -99.269531 54.9375 -98.71875 58.03125 -98 C 61.132812 -97.28125 64.148438 -96.410156 67.078125 -95.390625 C 68.734375 -94.835938 69.265625 -93.734375 68.671875 -92.078125 L 64.53125 -78.78125 C 63.9375 -77.125 62.832031 -76.59375 61.21875 -77.1875 C 57.945312 -78.457031 54.550781 -79.453125 51.03125 -80.171875 C 47.507812 -80.898438 44.242188 -81.265625 41.234375 -81.265625 C 39.023438 -81.265625 37.019531 -81.019531 35.21875 -80.53125 C 33.414062 -80.039062 31.992188 -79.242188 30.953125 -78.140625 C 29.921875 -77.035156 29.40625 -75.550781 29.40625 -73.6875 C 29.40625 -71.90625 29.929688 -70.3125 30.984375 -68.90625 C 32.046875 -67.507812 33.519531 -66.207031 35.40625 -65 C 37.300781 -63.789062 39.5 -62.582031 42 -61.375 C 44.5 -60.164062 47.171875 -58.882812 50.015625 -57.53125 C 52.984375 -56.082031 55.941406 -54.457031 58.890625 -52.65625 C 61.835938 -50.851562 64.53125 -48.753906 66.96875 -46.359375 C 69.414062 -43.960938 71.367188 -41.117188 72.828125 -37.828125 C 74.296875 -34.546875 75.03125 -30.695312 75.03125 -26.28125 C 75.03125 -22.039062 74.359375 -18.328125 73.015625 -15.140625 C 71.679688 -11.960938 69.847656 -9.25 67.515625 -7 C 65.179688 -4.75 62.488281 -2.921875 59.4375 -1.515625 C 56.382812 -0.117188 53.117188 0.894531 49.640625 1.53125 C 46.160156 2.164062 42.640625 2.484375 39.078125 2.484375 Z M 39.078125 2.484375 "/></g></g></g><g fill="#333333" fill-opacity="1"><g transform="translate(81.536323, 127.859937)"><g><path d="M 45.0625 0 L 27.875 0 C 26.132812 0 25.265625 -0.867188 25.265625 -2.609375 L 25.265625 -78.53125 L 4.90625 -78.53125 C 3.164062 -78.53125 2.296875 -79.398438 2.296875 -81.140625 L 2.296875 -95.140625 C 2.296875 -96.878906 3.164062 -97.75 4.90625 -97.75 L 68.03125 -97.75 C 69.769531 -97.75 70.640625 -96.878906 70.640625 -95.140625 L 70.640625 -81.140625 C 70.640625 -79.398438 69.769531 -78.53125 68.03125 -78.53125 L 47.65625 -78.53125 L 47.65625 -2.609375 C 47.65625 -0.867188 46.789062 0 45.0625 0 Z M 45.0625 0 "/></g></g></g><g fill="#333333" fill-opacity="1"><g transform="translate(154.585576, 127.859937)"><g><path d="M 52.0625 -97.75 L 95.640625 -3.125 C 96.023438 -2.1875 96.035156 -1.429688 95.671875 -0.859375 C 95.316406 -0.285156 94.648438 0 93.671875 0 L 74.90625 0 C 73.414062 0 72.414062 -0.675781 71.90625 -2.03125 L 67.578125 -12.859375 L 30.03125 -12.859375 L 25.703125 -2.03125 C 25.203125 -0.675781 24.207031 0 22.71875 0 L 3.953125 0 C 3.015625 0 2.351562 -0.285156 1.96875 -0.859375 C 1.59375 -1.429688 1.613281 -2.1875 2.03125 -3.125 L 45.625 -97.75 C 46.476562 -99.613281 47.539062 -100.546875 48.8125 -100.546875 C 50.082031 -100.546875 51.164062 -99.613281 52.0625 -97.75 Z M 48.8125 -60.078125 L 36.84375 -29.96875 L 60.84375 -29.96875 Z M 48.8125 -60.078125 "/></g></g></g><g fill="#333333" fill-opacity="1"><g transform="translate(252.323948, 127.859937)"><g><path d="M 48.171875 0 L 12.28125 0 C 10.539062 0 9.671875 -0.867188 9.671875 -2.609375 L 9.671875 -95.140625 C 9.671875 -96.878906 10.539062 -97.75 12.28125 -97.75 L 47.03125 -97.75 C 53.09375 -97.75 58.179688 -97.097656 62.296875 -95.796875 C 66.410156 -94.503906 69.695312 -92.703125 72.15625 -90.390625 C 74.625 -88.078125 76.410156 -85.40625 77.515625 -82.375 C 78.617188 -79.34375 79.171875 -76.085938 79.171875 -72.609375 C 79.171875 -67.515625 78.023438 -63.054688 75.734375 -59.234375 C 73.441406 -55.421875 70.257812 -52.410156 66.1875 -50.203125 C 70.21875 -48.847656 73.453125 -47.023438 75.890625 -44.734375 C 78.328125 -42.441406 80.097656 -39.84375 81.203125 -36.9375 C 82.304688 -34.03125 82.859375 -30.945312 82.859375 -27.6875 C 82.859375 -25.050781 82.539062 -22.40625 81.90625 -19.75 C 81.269531 -17.101562 80.1875 -14.59375 78.65625 -12.21875 C 77.125 -9.84375 75.03125 -7.742188 72.375 -5.921875 C 69.726562 -4.097656 66.421875 -2.65625 62.453125 -1.59375 C 58.492188 -0.53125 53.734375 0 48.171875 0 Z M 31.875 -78.53125 L 31.875 -58.484375 L 47.65625 -58.484375 C 50.632812 -58.484375 52.957031 -58.925781 54.625 -59.8125 C 56.300781 -60.707031 57.5 -61.925781 58.21875 -63.46875 C 58.945312 -65.019531 59.3125 -66.773438 59.3125 -68.734375 C 59.3125 -70.640625 58.9375 -72.332031 58.1875 -73.8125 C 57.445312 -75.300781 56.164062 -76.457031 54.34375 -77.28125 C 52.519531 -78.113281 49.953125 -78.53125 46.640625 -78.53125 Z M 31.875 -41.421875 L 31.875 -19.21875 L 47.65625 -19.21875 C 51.09375 -19.21875 53.742188 -19.722656 55.609375 -20.734375 C 57.484375 -21.753906 58.78125 -23.125 59.5 -24.84375 C 60.21875 -26.5625 60.578125 -28.421875 60.578125 -30.421875 C 60.578125 -32.535156 60.1875 -34.421875 59.40625 -36.078125 C 58.625 -37.734375 57.316406 -39.035156 55.484375 -39.984375 C 53.660156 -40.941406 51.179688 -41.421875 48.046875 -41.421875 Z M 31.875 -41.421875 "/></g></g></g><g fill="#333333" fill-opacity="1"><g transform="translate(341.408403, 127.859937)"><g><path d="M 61.21875 0 L 12.28125 0 C 10.539062 0 9.671875 -0.867188 9.671875 -2.609375 L 9.671875 -95.140625 C 9.671875 -96.878906 10.539062 -97.75 12.28125 -97.75 L 29.265625 -97.75 C 31.003906 -97.75 31.875 -96.878906 31.875 -95.140625 L 31.875 -19.21875 L 61.21875 -19.21875 C 62.957031 -19.21875 63.828125 -18.347656 63.828125 -16.609375 L 63.828125 -2.609375 C 63.828125 -0.867188 62.957031 0 61.21875 0 Z M 61.21875 0 "/></g></g></g><g fill="#333333" fill-opacity="1"><g transform="translate(407.649059, 127.859937)"><g><path d="M 69.296875 0 L 12.28125 0 C 10.539062 0 9.671875 -0.867188 9.671875 -2.609375 L 9.671875 -95.140625 C 9.671875 -96.878906 10.539062 -97.75 12.28125 -97.75 L 69.296875 -97.75 C 71.035156 -97.75 71.90625 -96.878906 71.90625 -95.140625 L 71.90625 -81.140625 C 71.90625 -79.398438 71.035156 -78.53125 69.296875 -78.53125 L 31.875 -78.53125 L 31.875 -51.15625 L 64.203125 -51.15625 C 65.941406 -51.15625 66.8125 -50.289062 66.8125 -48.5625 L 66.8125 -35.578125 C 66.8125 -33.835938 65.941406 -32.96875 64.203125 -32.96875 L 31.875 -32.96875 L 31.875 -19.21875 L 69.296875 -19.21875 C 71.035156 -19.21875 71.90625 -18.347656 71.90625 -16.609375 L 71.90625 -2.609375 C 71.90625 -0.867188 71.035156 0 69.296875 0 Z M 69.296875 0 "/></g></g></g></g></g></svg>